<?xml version="1.0" standalone="no"?>
<!DOCTYPE svg PUBLIC "-//W3C//DTD SVG 20010904//EN"
 "http://www.w3.org/TR/2001/REC-SVG-20010904/DTD/svg10.dtd">
<svg version="1.0" xmlns="http://www.w3.org/2000/svg"
 width="300.000000pt" height="300.000000pt" viewBox="0 0 300.000000 300.000000"
 preserveAspectRatio="xMidYMid meet">
<metadata>
Created by potrace 1.10, written by Peter Selinger 2001-2011
</metadata>
<g transform="translate(0.000000,300.000000) scale(0.100000,-0.100000)"
fill="#000000" stroke="none">
<path d="M780 1867 c-47 -23 -61 -70 -58 -183 4 -118 17 -147 77 -165 54 -16
127 -4 157 26 17 17 24 35 24 63 0 38 -1 40 -32 38 -28 -1 -34 -6 -38 -31 -4
-24 -11 -31 -34 -33 -16 -2 -39 -1 -52 2 -23 6 -24 9 -24 105 0 112 7 124 67
119 33 -3 39 -7 43 -33 5 -26 9 -30 35 -27 42 5 46 12 34 55 -14 50 -57 77
-124 77 -27 0 -61 -6 -75 -13z"/>
<path d="M1020 1700 l0 -180 35 0 35 0 0 180 0 180 -35 0 -35 0 0 -180z"/>
<path d="M1130 1700 l0 -180 35 0 35 0 0 107 0 107 66 -107 c63 -102 67 -107
100 -107 l34 0 0 180 0 180 -35 0 -35 0 0 -112 0 -113 -67 113 c-64 106 -69
112 -100 112 l-33 0 0 -180z m85 79 c29 -45 33 -68 10 -49 -12 10 -19 10 -27
2 -25 -25 -38 -13 -38 36 0 75 14 78 55 11z m155 -158 c0 -28 -4 -52 -9 -56
-12 -7 -62 65 -55 77 3 5 9 6 14 3 4 -3 13 2 20 10 22 26 30 16 30 -34z"/>
<path d="M1440 1700 l0 -180 105 0 c58 0 108 -1 113 -2 4 -2 8 12 10 30 l3 32
-81 0 -81 0 3 43 3 42 60 0 60 0 3 33 3 32 -65 0 -66 0 0 40 0 40 81 0 80 0
-3 33 -3 32 -112 3 -113 3 0 -181z m66 13 c9 -13 9 -22 2 -30 -19 -23 -38 -15
-38 17 0 33 16 39 36 13z"/>
<path d="M1772 1860 c-51 -27 -78 -62 -92 -123 -26 -119 42 -217 159 -225 44
-3 67 1 98 16 37 19 73 59 73 80 0 5 -27 24 -60 41 -49 26 -62 30 -78 20 -27
-17 -52 -4 -52 25 0 29 30 42 57 25 15 -9 27 -7 59 9 69 36 78 46 65 70 -38
71 -151 101 -229 62z m178 -50 c11 -11 20 -24 20 -30 0 -14 -37 -50 -52 -50
-18 0 -48 31 -48 51 0 17 35 49 52 49 5 0 17 -9 28 -20z m-122 -23 c4 -34 -13
-57 -42 -57 -28 0 -46 18 -46 45 0 30 20 46 55 43 25 -2 31 -8 33 -31z m-76
-74 c18 -16 18 -17 -4 -40 -30 -32 -38 -29 -38 17 0 44 12 50 42 23z m66 -75
c17 -17 15 -53 -3 -68 -38 -31 -96 27 -65 65 15 18 51 20 68 3z m139 -14 c12
-19 11 -24 -5 -44 -36 -45 -99 -1 -72 50 14 27 57 23 77 -6z"/>
<path d="M2189 1847 c-35 -19 -112 -61 -172 -94 l-107 -61 52 -27 c29 -15 100
-54 159 -86 58 -32 116 -60 130 -61 l24 -3 0 179 c0 122 -4 181 -11 183 -6 2
-40 -11 -75 -30z m31 -152 c0 -85 -4 -155 -8 -155 -25 0 -32 30 -32 148 0 117
8 162 30 162 6 0 10 -62 10 -155z m-60 0 c0 -52 -3 -95 -6 -95 -3 0 -28 10
-55 22 l-49 23 0 50 c1 49 2 51 43 71 68 34 67 35 67 -71z m-120 0 c0 -8 -9
-15 -20 -15 -20 0 -26 11 -13 23 12 13 33 7 33 -8z"/>
<path d="M757 1456 c-32 -30 -41 -73 -35 -188 4 -87 6 -92 36 -119 28 -26 40
-29 96 -29 55 0 69 4 95 26 25 21 31 33 31 65 0 38 -1 39 -34 39 -30 0 -35 -3
-38 -27 -3 -26 -6 -28 -53 -28 l-50 0 -3 99 c-3 110 3 126 52 126 38 0 56 -15
56 -47 0 -20 5 -23 34 -23 44 0 50 10 36 59 -15 57 -40 71 -126 71 -61 0 -75
-3 -97 -24z"/>
<path d="M1019 1476 c-2 -2 -3 -83 -1 -180 l3 -176 34 0 35 0 0 75 0 75 59 0
60 0 -2 -72 -2 -73 38 -3 37 -3 0 180 0 181 -41 0 -41 0 4 -67 3 -68 -57 -3
-58 -3 0 71 0 70 -33 0 c-19 0 -36 -2 -38 -4z m230 -182 l-3 -44 -23 22 c-27
26 -28 35 -7 59 24 27 35 14 33 -37z m-166 29 c14 -17 13 -20 -9 -46 l-24 -28
0 45 c0 49 8 56 33 29z"/>
<path d="M1381 1388 c-87 -269 -88 -275 -30 -266 16 2 26 13 33 36 9 32 10 32
70 32 61 0 62 0 71 -32 7 -23 17 -34 33 -36 48 -7 52 2 31 70 -11 35 -36 114
-55 176 l-35 112 -44 0 -43 0 -31 -92z m104 21 c18 -34 14 -49 -9 -30 -8 7
-25 9 -41 5 l-27 -7 16 32 c21 39 41 39 61 0z m-7 -91 l19 -58 -43 0 -43 0 21
61 c11 33 22 59 23 57 2 -2 12 -29 23 -60z m77 -118 c7 -32 6 -33 -9 -17 -9 9
-26 23 -37 30 -19 14 -19 15 -2 45 l17 30 12 -27 c6 -15 15 -43 19 -61z m-136
28 c-2 -2 -18 -13 -36 -25 l-31 -22 8 29 c5 17 6 30 3 30 -3 0 0 7 7 16 12 13
15 13 34 -5 11 -11 18 -22 15 -23z"/>
<path d="M1630 1300 l0 -180 35 0 35 0 0 101 c0 64 -4 98 -10 94 -5 -3 -10
-15 -10 -25 0 -10 -4 -22 -10 -25 -6 -4 -10 27 -10 85 0 80 2 91 17 88 9 -2
30 -28 47 -60 31 -57 31 -83 0 -57 -15 12 -16 11 -9 -10 4 -12 21 -52 37 -88
27 -57 33 -64 56 -61 23 3 31 15 59 82 19 43 31 81 29 83 -6 6 -56 -69 -56
-83 0 -6 -8 -18 -19 -28 -17 -16 -19 -15 -33 6 -24 40 -38 78 -28 78 6 0 10
-4 10 -9 0 -13 33 -23 51 -16 14 5 25 23 70 117 22 47 43 65 54 48 6 -10 9
-113 5 -190 -1 -35 -1 -34 -14 13 -7 26 -16 50 -19 54 -4 3 -7 -39 -7 -95 l0
-102 35 0 35 0 0 180 0 180 -42 0 c-47 -1 -44 3 -114 -165 l-17 -40 -49 103
-49 102 -40 0 -39 0 0 -180z"/>
<path d="M2020 1300 l0 -180 35 0 35 0 0 65 0 65 64 0 c48 0 69 5 89 20 49 39
45 159 -6 195 -16 11 -48 15 -119 15 l-98 0 0 -180z m90 143 c-50 -20 -65 -91
-29 -137 l20 -26 -20 -29 c-12 -16 -21 -39 -21 -52 0 -12 -3 -20 -6 -17 -7 8
-12 173 -6 226 5 41 6 42 41 41 20 0 29 -3 21 -6z m123 -25 c27 -43 4 -138
-33 -138 -16 0 -12 14 10 33 24 20 27 79 5 97 -8 7 -15 16 -15 21 0 17 20 9
33 -13z m-45 -10 c7 -7 12 -26 12 -43 0 -42 -16 -55 -67 -55 l-43 0 0 55 0 55
43 0 c24 0 48 -5 55 -12z"/>
</g>
</svg>
